<?xml version="1.0" encoding="UTF-8" standalone="no"?>
<svg
   xmlns:dc="http://purl.org/dc/elements/1.1/"
   xmlns:cc="http://creativecommons.org/ns#"
   xmlns:rdf="http://www.w3.org/1999/02/22-rdf-syntax-ns#"
   xmlns:svg="http://www.w3.org/2000/svg"
   xmlns="http://www.w3.org/2000/svg"
   xmlns:sodipodi="http://sodipodi.sourceforge.net/DTD/sodipodi-0.dtd"
   xmlns:inkscape="http://www.inkscape.org/namespaces/inkscape"
   version="1.2"
   x="0px"
   y="0px"
   viewBox="0 0 89.820053 90"
   xml:space="preserve"
   id="svg10"
   sodipodi:docname="configuration.svg"
   width="89.820053"
   height="90"
   inkscape:version="0.92.2 5c3e80d, 2017-08-06"><metadata
     id="metadata16"><rdf:RDF><cc:Work
         rdf:about=""><dc:format>image/svg+xml</dc:format><dc:type
           rdf:resource="http://purl.org/dc/dcmitype/StillImage" /><dc:title></dc:title></cc:Work></rdf:RDF></metadata><defs
     id="defs14" /><sodipodi:namedview
     pagecolor="#ffffff"
     bordercolor="#666666"
     borderopacity="1"
     objecttolerance="10"
     gridtolerance="10"
     guidetolerance="10"
     inkscape:pageopacity="0"
     inkscape:pageshadow="2"
     inkscape:window-width="1276"
     inkscape:window-height="1415"
     id="namedview12"
     showgrid="false"
     fit-margin-top="0"
     fit-margin-left="0"
     fit-margin-right="0"
     fit-margin-bottom="0"
     inkscape:zoom="1.888"
     inkscape:cx="123.43536"
     inkscape:cy="32.5"
     inkscape:window-x="1280"
     inkscape:window-y="21"
     inkscape:window-maximized="0"
     inkscape:current-layer="svg10" /><g
     id="g20"
     transform="translate(-5,-5)"><path
       id="path2"
       d="m 56.051,88.713 c 0.283,0.245 0.614,0.433 0.982,0.532 0.639,0.171 1.323,0.082 1.896,-0.25 l 2.433,-1.405 c 0.546,-0.141 1.079,-0.289 1.602,-0.442 0.653,0.425 1.328,0.816 2.035,1.15 V 92.5 c 0,1.381 1.119,2.5 2.5,2.5 h 10 c 1.381,0 2.5,-1.119 2.5,-2.5 v -4.202 c 0.851,-0.401 1.663,-0.87 2.435,-1.402 l 3.636,2.1 c 0.574,0.332 1.26,0.421 1.896,0.25 0.641,-0.172 1.188,-0.591 1.519,-1.165 l 5,-8.66 c 0.69,-1.195 0.28,-2.725 -0.915,-3.415 L 89.939,73.909 C 89.979,73.432 90,72.962 90,72.5 90,72.038 89.979,71.568 89.939,71.092 l 3.631,-2.097 c 1.195,-0.69 1.605,-2.22 0.915,-3.415 l -5,-8.66 c -0.331,-0.574 -0.878,-0.993 -1.519,-1.165 -0.637,-0.17 -1.322,-0.082 -1.896,0.25 l -3.636,2.1 C 81.663,57.573 80.85,57.104 79.999,56.703 V 52.5 c 0,-1.381 -1.119,-2.5 -2.5,-2.5 H 75 V 17.5 C 75,9.294 57.393,5 40,5 22.607,5 5,9.294 5,17.5 v 60 C 5,85.706 22.607,90 40,90 45.519,90 51.058,89.566 56.051,88.713 Z M 76.666,60.729 c 1.458,0.517 2.786,1.282 3.946,2.275 0.806,0.688 1.96,0.795 2.876,0.266 l 2.917,-1.685 2.5,4.33 -2.916,1.684 c -0.917,0.529 -1.4,1.578 -1.208,2.619 0.148,0.799 0.219,1.545 0.219,2.282 0,0.737 -0.071,1.483 -0.219,2.282 -0.192,1.041 0.291,2.09 1.208,2.619 l 2.916,1.684 -2.5,4.33 -2.917,-1.685 c -0.916,-0.529 -2.07,-0.424 -2.876,0.266 -1.16,0.993 -2.488,1.759 -3.946,2.275 C 75.667,84.625 75,85.568 75,86.628 V 90 h -5 v -3.372 c 0,-1.06 -0.667,-2.003 -1.666,-2.356 -1.458,-0.517 -2.786,-1.282 -3.946,-2.275 -0.806,-0.689 -1.96,-0.795 -2.876,-0.266 l -2.917,1.685 -2.5,-4.33 2.916,-1.684 c 0.917,-0.529 1.4,-1.578 1.208,-2.619 C 60.071,73.983 60,73.237 60,72.5 c 0,-0.737 0.071,-1.483 0.219,-2.282 0.192,-1.041 -0.291,-2.09 -1.208,-2.619 l -2.916,-1.684 2.5,-4.33 2.917,1.685 c 0.916,0.529 2.07,0.423 2.876,-0.266 1.16,-0.993 2.488,-1.759 3.946,-2.275 C 69.333,60.375 70,59.432 70,58.372 V 55 h 5 v 3.372 c 0,1.06 0.667,2.003 1.666,2.357 z M 67.5,50 C 66.119,50 65,51.119 65,52.5 v 4.202 c -0.851,0.401 -1.663,0.87 -2.435,1.402 l -3.636,-2.1 c -0.573,-0.332 -1.258,-0.42 -1.896,-0.25 -0.641,0.172 -1.188,0.591 -1.519,1.165 l -4.299,7.447 C 47.858,64.763 44.105,65 40,65 21.39,65 10,60.145 10,57.5 V 44.259 C 16.46,48.046 28.275,50 40,50 51.725,50 63.54,48.046 70,44.259 V 50 Z M 70,37.5 C 70,40.145 58.61,45 40,45 21.39,45 10,40.145 10,37.5 V 24.259 C 16.46,28.046 28.275,30 40,30 51.725,30 63.54,28.046 70,24.259 Z M 40,10 c 18.61,0 30,4.855 30,7.5 C 70,20.145 58.61,25 40,25 21.39,25 10,20.145 10,17.5 10,14.855 21.39,10 40,10 Z M 10,77.5 V 64.259 C 16.46,68.046 28.275,70 40,70 c 4.052,0 8.112,-0.236 11.962,-0.697 l 3.098,1.789 C 55.021,71.568 55,72.038 55,72.5 c 0,0.462 0.021,0.932 0.061,1.408 l -3.631,2.097 c -1.195,0.69 -1.605,2.22 -0.915,3.415 l 2.703,4.682 C 49.372,84.655 44.944,85 40,85 21.39,85 10,80.145 10,77.5 Z"
       inkscape:connector-curvature="0" /><path
       id="path4"
       d="M 65,72.5 C 65,76.636 68.364,80 72.5,80 76.636,80 80,76.636 80,72.5 80,68.364 76.636,65 72.5,65 68.364,65 65,68.364 65,72.5 Z M 72.5,75 C 71.121,75 70,73.879 70,72.5 70,71.121 71.121,70 72.5,70 c 1.379,0 2.5,1.121 2.5,2.5 0,1.379 -1.121,2.5 -2.5,2.5 z"
       inkscape:connector-curvature="0" /></g></svg>