<?xml version="1.0" encoding="UTF-8" standalone="no"?>
<svg
   xmlns:dc="http://purl.org/dc/elements/1.1/"
   xmlns:cc="http://creativecommons.org/ns#"
   xmlns:rdf="http://www.w3.org/1999/02/22-rdf-syntax-ns#"
   xmlns:svg="http://www.w3.org/2000/svg"
   xmlns="http://www.w3.org/2000/svg"
   xmlns:sodipodi="http://sodipodi.sourceforge.net/DTD/sodipodi-0.dtd"
   xmlns:inkscape="http://www.inkscape.org/namespaces/inkscape"
   version="1.1"
   x="0px"
   y="0px"
   viewBox="0 0 100 125"
   enable-background="new 0 0 100 100"
   xml:space="preserve"
   id="svg8"
   sodipodi:docname="link.svg"
   inkscape:version="0.92.0 r"><metadata
     id="metadata14"><rdf:RDF><cc:Work
         rdf:about=""><dc:format>image/svg+xml</dc:format><dc:type
           rdf:resource="http://purl.org/dc/dcmitype/StillImage" /></cc:Work></rdf:RDF></metadata><defs
     id="defs12" /><sodipodi:namedview
     pagecolor="#ffffff"
     bordercolor="#666666"
     borderopacity="1"
     objecttolerance="10"
     gridtolerance="10"
     guidetolerance="10"
     inkscape:pageopacity="0"
     inkscape:pageshadow="2"
     inkscape:window-width="1276"
     inkscape:window-height="1414"
     id="namedview10"
     showgrid="false"
     inkscape:zoom="3.776"
     inkscape:cx="50.716284"
     inkscape:cy="45.181441"
     inkscape:window-x="1280"
     inkscape:window-y="22"
     inkscape:window-maximized="0"
     inkscape:current-layer="svg8" /><path
     fill-rule="evenodd"
     clip-rule="evenodd"
     d="M90.735,35.343c0.003-1.401-0.156-2.777-0.597-4.105  c-1.283-3.876-3.44-7.092-7.057-9.181c-8.4-4.852-16.809-9.691-25.19-14.576c-2.278-1.329-4.706-1.996-7.315-2.066  C47.701,5.34,44.968,5.86,42.438,7.33c-8.461,4.909-16.972,9.736-25.395,14.711C12.022,25.009,9.38,29.57,9.318,35.4  c-0.103,9.745-0.024,19.489-0.032,29.235c-0.001,1.5,0.185,2.968,0.682,4.383c1.325,3.767,3.466,6.892,7.009,8.931  c8.335,4.802,16.673,9.6,24.98,14.448c2.182,1.274,4.482,2.028,6.989,2.164c3.063,0.168,5.977-0.329,8.675-1.896  c8.403-4.877,16.81-9.75,25.242-14.581c2.352-1.349,4.167-3.184,5.548-5.479c1.332-2.214,2.271-4.58,2.294-7.196  c0.043-5.134,0.013-10.269,0.013-15.402h0.013C90.73,45.119,90.726,40.229,90.735,35.343z M46.769,64.087l-0.408,0.407  c-2.424,2.424-5.65,3.76-9.082,3.76c-3.433,0-6.659-1.337-9.087-3.764c-2.427-2.427-3.764-5.654-3.764-9.086  s1.337-6.659,3.764-9.086l6.188-6.187c2.428-2.427,5.654-3.764,9.087-3.764s6.659,1.337,9.086,3.764  c3.593,3.593,4.731,8.979,2.901,13.72c-0.497,1.288-1.943,1.93-3.232,1.433c-1.288-0.497-1.929-1.944-1.432-3.232  c1.118-2.898,0.422-6.189-1.773-8.385c-1.482-1.483-3.453-2.299-5.55-2.299s-4.068,0.817-5.552,2.3l-6.188,6.187  c-1.482,1.483-2.299,3.454-2.299,5.551s0.816,4.068,2.299,5.55c1.483,1.483,3.455,2.3,5.552,2.3s4.067-0.816,5.55-2.299l0.411-0.41  c0.979-0.974,2.561-0.972,3.535,0.006S47.746,63.112,46.769,64.087z M71.809,53.683l-6.188,6.187  c-2.427,2.427-5.654,3.764-9.086,3.764c-3.433,0-6.66-1.337-9.087-3.764c-3.593-3.592-4.731-8.978-2.901-13.72  c0.496-1.288,1.942-1.931,3.232-1.433c1.288,0.497,1.929,1.944,1.432,3.232c-1.118,2.898-0.422,6.189,1.773,8.384  c1.482,1.483,3.454,2.3,5.551,2.3s4.068-0.816,5.551-2.299l6.188-6.188c1.482-1.483,2.299-3.454,2.299-5.551  s-0.816-4.068-2.299-5.551c-1.482-1.482-3.454-2.299-5.551-2.299c-2.098,0-4.068,0.816-5.551,2.299l-0.408,0.408  c-0.978,0.975-2.56,0.974-3.535-0.002c-0.976-0.977-0.975-2.56,0.002-3.536l0.407-0.407c2.425-2.426,5.652-3.762,9.084-3.762  c0.001,0,0,0,0.001,0c3.432,0,6.659,1.336,9.086,3.763c2.428,2.428,3.764,5.655,3.764,9.087  C75.572,48.029,74.235,51.256,71.809,53.683z"
     id="path2"
     inkscape:export-xdpi="18.85"
     inkscape:export-ydpi="18.85" /></svg>